<?xml version="1.0" standalone="no"?>
<!DOCTYPE svg PUBLIC "-//W3C//DTD SVG 20010904//EN"
 "http://www.w3.org/TR/2001/REC-SVG-20010904/DTD/svg10.dtd">
<svg version="1.0" xmlns="http://www.w3.org/2000/svg"
 width="687.000000pt" height="701.000000pt" viewBox="0 0 687.000000 701.000000"
 preserveAspectRatio="xMidYMid meet">
<metadata>
Created by potrace 1.16, written by Peter Selinger 2001-2019
</metadata>
<g transform="translate(0.000000,701.000000) scale(0.100000,-0.100000)"
fill="#000000" stroke="none">
<path d="M0 6270 c0 -631 2 -739 14 -734 10 4 16 -5 21 -25 4 -20 13 -31 23
-31 22 0 53 -70 45 -100 -5 -19 -3 -22 10 -17 20 8 23 -13 5 -31 -10 -10 -10
-15 2 -22 8 -5 23 -10 33 -10 9 0 17 -4 17 -10 0 -5 7 -10 15 -10 8 0 15 5 15
10 0 6 -4 10 -10 10 -5 0 -10 5 -10 10 0 6 4 10 9 10 16 0 23 -40 11 -55 -10
-12 -9 -15 4 -15 13 0 16 -5 11 -19 -5 -18 -3 -19 25 -11 27 8 31 7 26 -7 -5
-12 -1 -14 18 -9 16 4 30 0 40 -9 21 -22 76 -31 76 -14 0 8 10 19 23 24 17 8
21 17 19 40 -2 17 -4 49 -4 72 0 24 -4 40 -9 37 -5 -2 -11 8 -15 23 -3 15 -7
33 -9 40 -2 6 4 14 13 18 15 6 14 8 -6 16 -13 5 -20 13 -17 19 4 7 12 7 25 0
24 -13 40 -13 40 1 0 6 -7 9 -15 5 -16 -6 -35 22 -28 42 3 6 0 12 -6 12 -6 0
-11 5 -11 10 0 6 8 10 18 10 10 0 19 7 19 15 0 8 -9 15 -19 15 -19 0 -25 15
-9 24 11 7 53 -29 44 -38 -7 -6 10 -9 38 -7 9 1 19 -5 22 -14 7 -17 47 -21 47
-4 0 5 5 7 11 3 6 -3 8 -17 5 -30 -5 -19 -2 -24 19 -29 14 -3 35 -7 47 -10 13
-2 41 -20 62 -39 21 -20 43 -33 48 -30 5 4 8 -2 6 -12 -1 -11 2 -20 7 -22 6
-2 17 -10 27 -18 11 -11 18 -12 23 -4 4 6 14 8 24 4 22 -9 84 -5 96 7 6 6 5
16 -2 28 -10 15 -9 20 2 25 23 8 18 26 -7 27 -17 1 -19 2 -5 6 9 2 17 12 18
21 0 9 1 33 2 52 2 19 0 56 -4 83 -3 30 -1 51 6 57 6 5 10 23 7 39 -3 23 0 29
12 27 8 -1 18 -5 22 -9 3 -3 13 1 21 9 9 8 22 13 29 10 8 -3 14 0 14 7 0 7 7
3 16 -8 12 -17 16 -18 24 -5 5 8 12 11 16 8 4 -4 16 -2 27 4 17 9 19 8 14 -6
-10 -26 3 -46 32 -46 25 1 25 1 6 15 -19 15 -19 16 -1 33 18 16 19 16 13 -1
-5 -13 0 -20 18 -27 14 -5 25 -17 25 -25 0 -9 5 -13 10 -10 5 3 10 17 10 31 0
15 6 24 16 24 9 0 12 5 8 11 -5 9 1 10 22 5 20 -5 25 -4 15 3 -11 7 -1 9 31 8
25 -1 41 -5 36 -8 -6 -4 -3 -9 8 -11 10 -2 28 4 38 14 16 14 17 20 6 33 -11
13 -10 14 6 8 10 -3 21 -9 24 -12 3 -3 14 -11 25 -17 11 -7 19 -19 17 -29 -2
-9 1 -14 7 -11 22 14 34 -35 23 -93 -11 -56 -25 -192 -23 -221 1 -26 7 -49 13
-55 10 -10 -4 -45 -15 -38 -7 4 -8 0 -4 -11 4 -10 -2 -38 -13 -63 -33 -74 -24
-192 24 -318 8 -22 15 -52 16 -67 0 -25 -2 -26 -30 -18 -16 5 -30 6 -30 2 0
-4 -75 -8 -168 -10 -92 -1 -210 -5 -262 -8 -52 -3 -162 -7 -245 -10 -183 -6
-253 -10 -325 -17 -30 -4 -118 -9 -195 -13 -192 -8 -257 -13 -272 -18 -11 -4
-13 -449 -13 -2386 l0 -2380 954 0 953 0 7 77 c3 42 6 143 6 224 0 97 4 150
11 155 7 4 9 21 6 43 -10 59 34 294 78 426 22 63 29 91 51 192 10 45 22 79 26
77 4 -3 8 -1 8 4 0 6 7 13 16 16 13 5 15 1 12 -24 -6 -43 5 -37 20 10 14 45
17 100 3 66 -14 -36 -21 1 -17 86 3 45 10 84 15 86 6 2 11 10 11 18 0 8 6 15
13 15 29 3 34 5 50 21 9 9 17 24 17 33 0 9 6 28 14 43 8 15 33 140 56 277 41
246 41 251 26 310 -9 33 -19 87 -22 120 -3 33 -8 76 -10 95 -8 50 -32 235 -40
303 -4 31 -5 57 -2 57 11 0 78 -111 78 -130 0 -11 4 -20 10 -20 5 0 7 -6 4
-14 -3 -8 -1 -17 5 -20 6 -4 8 -13 4 -21 -3 -9 -1 -21 4 -28 5 -6 8 -25 7 -42
-3 -42 6 -86 16 -80 11 7 33 -32 26 -44 -3 -5 10 -16 30 -26 27 -13 34 -21 29
-36 -5 -14 -3 -17 9 -13 9 3 16 2 16 -4 0 -5 -9 -12 -20 -15 -44 -11 -13 -34
38 -28 6 1 12 -3 12 -9 0 -6 16 -18 35 -26 38 -15 42 -23 23 -43 -11 -11 -9
-12 9 -7 17 6 22 2 25 -16 2 -13 9 -22 16 -20 8 1 11 -2 7 -7 -3 -6 8 -17 24
-26 20 -10 28 -20 25 -30 -4 -11 3 -19 25 -26 17 -6 28 -15 25 -20 -3 -5 2 -9
10 -9 9 0 16 -7 16 -15 0 -8 6 -15 14 -15 21 0 32 -31 40 -109 1 -19 8 -37 14
-39 7 -2 12 -10 12 -18 0 -8 9 -23 20 -34 20 -20 28 -8 11 19 -12 19 -3 41 18
42 10 0 11 2 4 6 -15 5 -18 33 -4 33 6 0 13 -4 16 -10 3 -5 20 -13 37 -18 22
-5 32 -15 35 -32 5 -36 23 -53 39 -39 13 11 18 6 15 -14 -2 -13 27 -20 54 -13
14 4 23 11 20 17 -7 11 38 3 68 -13 9 -5 17 -6 17 -2 0 3 11 -1 25 -10 29 -19
55 -21 55 -4 0 7 5 5 13 -5 13 -18 129 -26 180 -12 17 5 27 3 27 -4 0 -6 -6
-11 -14 -11 -8 0 -18 -5 -21 -11 -5 -6 6 -9 31 -7 20 2 38 -1 40 -7 4 -13 -99
-85 -121 -85 -9 0 -13 -4 -10 -10 3 -5 -1 -10 -9 -10 -8 0 -18 -9 -21 -20 -4
-11 -10 -18 -14 -15 -5 2 -21 -7 -37 -21 -54 -47 -96 -67 -143 -70 -91 -4 -95
-7 -28 -15 74 -10 104 -1 141 40 11 12 23 21 27 21 4 0 45 27 91 61 46 33 107
76 136 95 28 19 67 47 85 63 30 26 75 55 87 56 7 0 93 64 145 107 21 18 35 27
30 19 -14 -24 26 7 104 82 39 37 76 67 83 67 12 0 78 70 78 83 0 4 18 44 40
88 22 45 40 88 40 97 0 28 17 0 35 -58 9 -30 33 -86 52 -124 43 -86 91 -199
105 -249 9 -30 14 -36 29 -32 11 4 19 2 19 -4 0 -6 7 -11 15 -11 8 0 15 -5 15
-11 0 -5 -4 -7 -10 -4 -5 3 -10 1 -10 -4 0 -6 5 -11 10 -11 6 0 10 -5 10 -11
0 -5 -4 -8 -9 -5 -15 9 -23 -48 -11 -78 5 -15 11 -59 12 -97 2 -38 6 -69 10
-69 5 0 8 8 9 18 0 10 3 12 6 5 2 -7 10 -13 17 -13 16 0 37 -176 42 -345 3
-100 26 -278 50 -385 11 -46 16 -480 6 -480 -5 0 -6 -21 -1 -52 5 -30 5 -56 0
-61 -5 -5 -7 -34 -4 -64 4 -39 2 -57 -7 -63 -8 -5 -10 -18 -5 -39 l7 -31 1119
0 1119 0 0 695 0 695 -27 11 c-16 7 -66 21 -113 34 -47 12 -137 38 -200 57
-209 65 -556 138 -770 162 -229 26 -542 80 -683 117 -25 7 -64 34 -110 76 -40
37 -97 82 -127 101 -46 30 -107 77 -225 174 -158 130 -252 188 -309 188 -56 0
-60 8 -53 112 4 51 11 111 17 133 26 95 55 189 96 310 24 72 57 187 73 257 30
130 37 152 50 144 19 -12 100 17 127 45 26 27 27 32 13 42 -20 15 -35 57 -20
57 6 0 8 7 5 15 -4 9 0 15 10 16 33 3 37 4 46 19 5 8 12 11 16 7 4 -3 1 -13
-5 -21 -7 -8 -11 -23 -9 -33 5 -23 60 82 78 147 15 55 21 71 50 135 22 49 22
50 1 31 -12 -11 -31 -46 -42 -78 -12 -32 -26 -61 -30 -64 -12 -7 -11 3 1 25
10 19 23 180 22 269 -1 55 3 60 33 38 16 -12 17 -16 6 -30 -8 -9 -11 -26 -7
-41 4 -15 0 -37 -9 -55 -17 -33 -18 -40 -7 -40 8 0 35 56 37 80 3 24 27 70 37
70 5 0 7 -8 5 -17 -16 -56 -29 -125 -25 -129 3 -2 15 34 28 80 24 92 23 183
-5 236 -18 35 -11 162 13 233 10 32 21 60 25 63 3 3 3 41 0 84 -5 69 -3 82 16
108 11 17 21 35 21 41 0 6 11 13 24 17 13 3 34 17 47 30 25 26 14 33 -17 9
-10 -8 -26 -15 -34 -15 -24 0 -24 83 0 138 36 81 22 178 -34 240 -26 29 -26
97 0 142 18 29 18 31 -10 87 -15 31 -49 84 -74 117 -26 34 -47 72 -48 86 -1
43 -25 114 -45 133 -10 10 -19 26 -19 37 0 10 -5 22 -10 25 -6 4 -8 10 -5 14
2 5 -30 39 -71 77 -42 37 -85 86 -96 109 -11 22 -24 42 -28 45 -4 3 -15 21
-24 40 -9 19 -27 50 -41 69 -14 18 -23 37 -20 41 5 8 -37 48 -75 72 -14 8 -53
41 -88 72 -40 36 -97 72 -159 102 -105 50 -142 74 -218 144 -95 88 -243 127
-545 145 -170 9 -214 17 -218 38 -3 15 0 18 17 12 22 -7 29 9 10 21 -8 4 -10
32 -7 80 3 41 1 74 -4 74 -4 0 -8 5 -8 10 0 6 9 10 20 10 19 0 48 46 36 57 -3
3 -1 15 4 27 6 17 4 25 -11 35 -11 6 -24 9 -29 6 -6 -4 -10 9 -10 29 l0 36
-1565 0 -1565 0 0 -740z m3000 -520 c28 -16 62 -30 75 -30 13 0 26 -4 30 -10
3 -5 12 -7 20 -3 8 3 15 0 15 -6 0 -6 7 -11 15 -11 8 0 12 -6 9 -14 -5 -12 40
-30 73 -29 6 0 9 -6 6 -14 -4 -11 1 -13 23 -7 16 4 31 8 33 10 6 5 61 -29 61
-38 0 -4 7 -8 15 -8 10 0 15 -7 13 -17 -2 -12 3 -18 17 -18 11 0 21 -8 23 -18
2 -9 14 -20 27 -23 13 -3 29 -12 36 -20 6 -8 20 -14 31 -14 10 0 21 -7 24 -15
3 -8 26 -17 52 -21 26 -4 52 -13 60 -20 14 -14 24 -16 140 -18 52 -1 74 -6 98
-23 17 -12 34 -19 38 -16 4 4 4 0 1 -9 -4 -9 -2 -19 4 -23 6 -3 11 -1 11 4 0
6 3 11 8 11 8 -1 66 -77 68 -91 1 -5 2 -13 3 -19 0 -5 8 -10 17 -10 11 0 15
-6 11 -20 -3 -10 -1 -20 4 -22 6 -2 11 -30 12 -63 2 -63 16 -86 47 -78 19 5
59 -29 41 -35 -18 -6 -13 -18 9 -19 11 -1 33 -11 48 -23 22 -18 24 -21 7 -18
-17 2 -21 -3 -23 -34 -2 -21 1 -46 7 -55 9 -16 10 -16 11 5 0 12 5 22 10 22
25 0 -4 -66 -34 -75 -21 -8 -21 -8 2 -12 26 -5 28 -18 5 -32 -17 -10 -17 -10
0 -11 13 0 17 -8 17 -34 0 -18 7 -39 15 -46 9 -7 15 -20 14 -29 -4 -47 2 -69
21 -74 12 -3 18 -11 15 -20 -4 -8 5 -28 19 -45 22 -25 35 -62 23 -62 -2 0 -23
10 -48 22 -36 18 -64 22 -151 24 -59 1 -111 5 -116 8 -6 3 -16 -1 -23 -10 -8
-10 -21 -13 -36 -9 -16 4 -25 1 -29 -10 -5 -13 -17 -15 -63 -10 -133 15 -168
5 -241 -66 -30 -28 -41 -34 -55 -26 -13 7 -16 6 -10 -3 5 -9 2 -10 -14 -5 -14
4 -23 2 -27 -9 -7 -19 -77 -56 -106 -56 l-21 0 22 -19 c28 -24 10 -41 -45 -39
-45 1 -138 39 -112 45 15 4 15 6 0 34 -12 21 -25 29 -45 29 -20 0 -30 7 -37
24 -5 13 -13 27 -19 30 -6 4 -8 13 -5 20 3 7 -1 16 -10 19 -8 3 -17 -1 -20 -9
-7 -18 -26 -18 -26 0 0 7 -17 32 -37 54 -30 32 -45 41 -73 41 -19 0 -51 5 -70
10 -19 6 -48 11 -63 11 -16 0 -26 3 -24 8 3 4 -27 8 -66 8 -77 2 -232 20 -257
31 -30 12 -43 11 -69 -6 -14 -10 -52 -34 -83 -55 -31 -21 -68 -52 -81 -69 -58
-75 -66 -79 -115 -72 -39 6 -44 5 -34 -7 8 -10 10 -41 6 -99 -6 -80 -5 -84 16
-94 21 -10 50 -70 50 -107 0 -21 14 -30 34 -22 13 5 16 23 16 92 0 47 5 100
12 118 11 31 12 32 34 17 13 -8 28 -12 34 -8 5 3 10 -1 10 -9 0 -10 -9 -16
-21 -16 -16 0 -19 -4 -14 -19 4 -13 0 -24 -12 -31 -16 -11 -17 -11 0 -6 11 3
17 0 17 -9 0 -8 5 -15 11 -15 5 0 7 -4 4 -10 -3 -5 -1 -10 4 -10 6 0 11 -7 11
-16 0 -11 6 -14 20 -9 11 3 20 2 20 -4 0 -5 8 -9 18 -9 31 3 72 -12 69 -25 -1
-8 9 -11 33 -9 43 5 50 11 27 23 -23 13 -13 29 18 29 13 0 27 5 31 11 4 8 22
9 53 4 25 -4 61 -8 80 -10 34 -4 57 -23 42 -38 -4 -4 -25 -9 -47 -12 -109 -14
-178 -35 -157 -48 4 -3 62 -5 129 -5 119 -1 191 8 203 25 3 4 17 9 31 11 37 4
55 44 26 55 -10 4 -13 1 -10 -7 3 -8 1 -17 -4 -20 -5 -3 -12 3 -15 13 -6 25
13 33 77 33 56 1 71 -14 49 -49 -17 -26 -8 -47 10 -23 34 44 44 43 68 -5 23
-46 36 -54 57 -33 19 19 15 -7 -8 -52 -23 -45 -25 -61 -7 -58 21 5 56 51 89
118 17 36 40 77 50 92 42 61 143 38 164 -38 6 -21 13 -46 16 -54 4 -8 6 -22 5
-30 0 -8 12 -34 26 -57 15 -23 24 -49 21 -58 -3 -8 -1 -15 6 -15 6 0 8 5 5 10
-3 6 -2 10 3 10 20 0 81 -97 75 -119 -3 -12 -9 -21 -14 -21 -5 0 -6 -7 -3 -15
10 -25 24 -17 24 15 0 17 5 30 10 30 6 0 10 -4 10 -8 0 -5 20 -22 45 -40 25
-17 45 -38 45 -46 0 -7 9 -16 20 -19 14 -4 20 -13 20 -34 0 -62 -13 -76 -87
-98 -29 -8 -62 10 -73 41 -11 28 -35 32 -48 7 -6 -10 -16 -14 -26 -10 -11 4
-28 -5 -51 -28 -44 -42 -127 -74 -175 -67 -19 3 -47 14 -63 26 -19 14 -30 17
-35 9 -8 -12 -29 4 -28 22 1 12 -63 22 -164 25 l-75 3 1 -42 c1 -45 4 -51 28
-55 9 -1 30 -15 45 -32 44 -45 60 -56 72 -49 7 5 5 15 -5 31 -21 31 -20 34 9
34 30 0 75 -20 75 -33 0 -5 8 -16 18 -23 14 -11 15 -15 3 -23 -19 -13 1 -44
30 -47 13 -1 51 -9 84 -17 33 -8 78 -13 100 -11 22 2 51 4 64 4 13 0 31 5 39
12 11 10 17 9 28 -7 8 -11 13 -24 11 -30 -3 -9 -67 -24 -171 -40 -26 -4 -35
-9 -27 -15 17 -10 4 -33 -14 -26 -7 2 -17 0 -22 -5 -5 -5 -21 -5 -38 0 -17 5
-46 14 -66 20 -19 6 -45 11 -57 11 -12 0 -22 5 -22 11 0 7 10 9 25 5 18 -5 25
-2 25 8 0 8 -17 18 -40 24 -37 9 -39 9 -29 -9 12 -23 -3 -26 -25 -4 -8 8 -20
15 -26 15 -7 0 -10 -7 -6 -15 3 -8 1 -15 -3 -15 -5 0 -11 5 -13 11 -5 15 -136
21 -178 9 -25 -7 -35 -5 -50 10 -11 11 -17 26 -14 34 4 10 -5 15 -33 18 -21 3
-42 3 -48 0 -5 -3 -21 -6 -35 -6 -17 -1 -25 -6 -24 -18 1 -10 -2 -15 -7 -12
-5 3 -9 1 -9 -5 0 -16 -37 -23 -58 -10 -24 15 -56 4 -48 -16 3 -10 -1 -15 -13
-15 -14 0 -17 -6 -13 -26 3 -19 9 -24 23 -21 11 3 19 1 19 -3 0 -5 20 -29 45
-53 43 -43 45 -44 61 -26 10 11 23 19 30 19 7 0 17 6 21 13 13 20 51 38 58 27
3 -6 51 -10 105 -10 58 0 101 -4 105 -10 4 -6 16 -8 26 -5 11 4 26 1 34 -5 8
-7 15 -8 15 -3 0 13 192 -3 200 -17 4 -7 27 -10 55 -9 31 2 50 -1 53 -9 3 -9
10 -8 30 2 45 22 92 28 92 11 0 -17 26 -20 35 -4 4 6 13 8 20 5 8 -3 15 0 17
6 3 8 12 7 27 -4 13 -9 29 -14 36 -12 6 3 17 -2 24 -9 9 -12 8 -18 -5 -32 -15
-14 -15 -18 -3 -26 8 -5 17 -9 21 -9 3 0 8 -7 10 -16 2 -13 15 -17 61 -17 32
0 61 3 64 7 11 10 23 7 23 -7 0 -7 9 -20 20 -30 19 -16 20 -16 20 13 0 19 6
33 16 37 8 3 13 12 9 20 -4 12 0 14 21 9 18 -5 30 -3 35 6 6 9 9 6 9 -9 0 -16
5 -21 15 -17 11 4 16 -5 21 -35 5 -34 9 -39 20 -30 8 6 14 22 14 36 0 14 4 21
10 18 6 -3 10 2 10 13 0 18 55 82 71 82 5 0 9 -6 10 -12 1 -7 2 -27 4 -45 2
-21 -4 -38 -16 -49 -11 -9 -19 -23 -19 -31 0 -22 -52 -85 -65 -79 -19 7 -57
-51 -50 -74 10 -30 -2 -41 -32 -29 -15 5 -34 7 -42 3 -9 -4 -32 -8 -51 -9 -62
-4 -81 -14 -74 -41 5 -18 2 -24 -10 -24 -12 0 -16 -7 -14 -27 3 -22 -2 -28
-27 -35 -16 -4 -40 -22 -52 -40 -16 -23 -23 -27 -23 -15 0 9 -4 17 -10 17 -5
0 -10 -7 -10 -16 0 -8 -4 -13 -9 -9 -5 3 -12 -3 -14 -12 -3 -11 -5 -8 -6 10
-1 27 -21 40 -21 13 0 -7 -7 -19 -15 -26 -17 -14 -20 -30 -5 -30 6 0 10 8 10
18 0 14 2 14 9 3 5 -8 7 -21 3 -29 -3 -10 -1 -13 6 -8 8 5 12 -1 12 -18 0 -19
4 -24 16 -19 12 4 15 1 12 -13 -2 -13 -10 -18 -23 -15 -47 9 -50 7 -56 -39 -3
-25 -7 -39 -7 -32 -1 6 -7 12 -13 12 -5 0 -8 -4 -5 -9 10 -15 -44 -42 -77 -39
-18 2 -31 8 -30 13 4 16 -44 24 -83 14 -24 -7 -39 -7 -48 0 -9 8 -22 7 -44 -5
-18 -8 -36 -13 -41 -10 -5 4 -12 -2 -15 -12 -5 -16 -32 -21 -56 -12 -3 1 -8 2
-12 1 -5 0 -8 6 -8 16 0 15 -2 15 -19 -1 -15 -13 -20 -14 -23 -4 -4 10 -8 10
-23 -2 -17 -14 -18 -13 -13 8 7 24 6 24 -34 27 -15 1 -25 -2 -23 -6 3 -4 1
-10 -4 -13 -5 -4 -20 8 -32 26 -29 42 -40 49 -61 44 -11 -2 -18 2 -18 10 0 8
-10 14 -21 14 -17 0 -19 3 -11 13 13 15 -4 33 -48 54 -14 6 -19 12 -12 12 19
1 14 21 -5 21 -23 1 -46 19 -62 48 -7 14 -21 22 -36 22 -14 0 -25 5 -25 10 0
6 7 10 15 10 25 0 17 19 -23 58 -48 47 -76 104 -74 152 1 20 0 21 -5 5 -7 -28
-23 -45 -41 -45 -8 0 -12 3 -9 6 3 4 2 16 -4 28 -10 21 -10 21 6 1 14 -17 17
-18 25 -5 14 22 7 34 -28 44 -33 11 -59 53 -48 81 4 11 -4 22 -24 33 -16 9
-30 25 -30 35 0 9 -7 17 -15 17 -9 0 -15 10 -15 26 0 19 -4 25 -15 20 -9 -3
-15 0 -15 10 0 11 -6 13 -19 9 -11 -3 -22 -1 -26 5 -3 6 -11 8 -16 5 -5 -4 -9
-2 -9 3 0 6 -12 13 -26 16 -20 5 -24 10 -15 19 19 19 12 27 -21 21 -51 -10
-61 -29 -37 -72 10 -20 16 -44 13 -54 -3 -10 -2 -23 1 -29 4 -6 9 -29 11 -52
2 -23 6 -55 8 -72 4 -28 4 -29 -10 -11 -8 11 -14 29 -14 40 -1 12 -8 39 -16
61 -36 96 -73 238 -89 343 -10 62 -22 115 -26 118 -5 3 -9 1 -9 -5 0 -7 -8 -7
-26 -1 -19 8 -31 7 -41 -2 -12 -9 -19 -9 -36 1 -15 10 -22 11 -25 2 -2 -6 -8
-11 -13 -11 -9 0 -101 152 -101 167 0 4 -5 15 -12 23 -7 8 -19 31 -26 50 -19
50 -29 60 -61 60 -16 0 -32 7 -38 18 -10 16 -10 16 -11 0 0 -14 -8 -18 -34
-18 -25 0 -33 4 -32 16 0 9 -5 19 -13 22 -8 3 -11 0 -7 -6 3 -6 1 -14 -5 -18
-19 -12 -86 -15 -111 -5 -20 9 -19 10 14 10 l38 1 -20 20 c-25 25 -25 36 0 43
13 3 20 0 20 -9 0 -8 5 -14 11 -14 6 0 9 6 6 14 -8 20 19 28 33 10 16 -18 30
-18 30 0 0 8 -9 18 -20 21 -11 3 -20 11 -20 16 0 5 -3 8 -7 8 -28 -4 -33 2
-17 18 13 13 19 14 22 5 4 -14 32 -16 32 -2 0 6 -7 10 -15 10 -8 0 -15 5 -15
11 0 21 30 39 62 37 25 -2 33 1 36 17 3 16 1 18 -9 8 -15 -15 -33 -18 -25 -4
3 4 -6 6 -19 3 -14 -2 -25 -8 -25 -13 0 -5 -9 -9 -20 -9 -12 0 -20 7 -20 16 0
10 6 14 14 11 21 -8 44 22 27 33 -10 6 -8 10 8 15 13 4 20 13 19 23 -4 24 26
22 30 -2 2 -10 -2 -22 -10 -27 -10 -7 -10 -9 3 -9 22 0 32 29 17 47 -8 10 -8
17 -1 21 6 4 14 26 17 49 4 22 14 49 21 60 8 10 15 25 15 34 0 8 11 25 23 38
21 19 26 20 36 7 10 -11 8 -17 -10 -29 -11 -9 -19 -19 -16 -24 3 -5 -1 -38 -8
-73 -20 -90 -18 -117 7 -172 23 -48 38 -61 38 -33 0 8 -4 15 -10 15 -14 0 -2
118 16 152 12 23 19 27 39 22 20 -5 25 -2 25 14 0 13 9 22 25 26 55 14 92 -68
51 -113 -10 -11 -15 -24 -12 -29 3 -5 -4 -19 -15 -30 -17 -19 -19 -32 -15
-108 6 -103 29 -157 69 -162 16 -2 27 -10 27 -19 0 -8 16 -33 34 -55 38 -44
46 -68 35 -110 -6 -21 -4 -28 6 -28 7 0 15 -8 18 -17 2 -10 4 41 4 112 1 212
10 466 18 528 7 51 10 57 29 55 19 -3 22 3 26 52 3 30 1 75 -4 100 -5 25 -10
104 -12 176 l-2 131 40 47 c22 26 38 50 34 53 -3 4 -6 2 -6 -4 0 -6 -11 -13
-25 -16 -20 -3 -25 -1 -23 11 2 8 12 16 22 18 17 2 36 20 36 34 0 3 -5 12 -10
20 -9 13 -12 13 -21 -2 -13 -23 -25 -23 -31 0 -6 20 15 56 25 45 4 -3 7 1 7
10 0 8 7 23 16 31 8 9 14 22 11 29 -2 6 1 23 8 37 25 50 35 94 25 104 -14 14
-12 26 5 26 17 0 19 9 6 29 -6 9 -11 10 -15 2 -10 -16 -26 -13 -26 5 0 8 5 12
10 9 6 -3 10 1 10 9 0 8 -5 18 -10 21 -8 5 -7 11 1 21 6 7 16 11 22 7 6 -4 8
0 4 9 -4 11 1 18 14 21 12 3 19 14 19 31 0 14 6 29 14 33 14 9 40 51 42 68 2
41 17 106 25 110 5 4 7 10 4 15 -3 4 2 10 10 14 11 4 14 17 12 46 -3 33 0 40
14 40 21 0 33 16 19 25 -6 4 -8 11 -4 16 3 5 9 7 14 4 5 -3 11 -1 15 5 3 5 19
10 35 10 16 0 31 4 34 9 4 5 24 12 46 16 23 4 37 11 34 17 -4 6 1 8 12 4 11
-3 39 -10 64 -15 25 -4 50 -9 55 -11 24 -6 44 1 39 13 -3 10 8 14 41 16 30 1
53 9 66 22 15 15 28 19 48 14 15 -3 38 -1 52 4 13 5 25 10 26 10 1 1 25 -12
53 -29z m1450 -1707 c0 -9 6 -13 15 -9 18 6 18 2 5 -43 -7 -24 -5 -42 5 -65 7
-17 14 -24 14 -15 1 9 7 19 15 22 7 3 17 23 21 44 13 65 21 12 19 -121 -4
-240 -18 -366 -43 -366 -10 0 -24 -38 -22 -57 1 -7 -3 -13 -9 -13 -6 0 -8 -5
-4 -11 4 -7 1 -10 -7 -7 -8 3 -13 15 -11 27 3 20 1 21 -19 11 -17 -10 -23 -9
-30 1 -6 10 -9 8 -9 -8 0 -26 -18 -39 -33 -24 -19 19 -45 12 -55 -16 -7 -18
-11 -22 -11 -10 -1 22 -18 22 -30 -1 -8 -16 -17 -18 -54 -12 -49 7 -87 -2 -87
-22 0 -7 -10 -18 -22 -23 -13 -6 -27 -20 -33 -32 -5 -13 -13 -23 -17 -23 -14
0 -49 41 -43 50 3 5 -10 12 -30 16 -26 5 -37 13 -41 30 -3 13 -12 25 -20 25
-8 1 -18 3 -24 4 -5 1 -14 3 -20 4 -19 2 -10 31 10 31 11 0 20 5 20 10 0 6 -7
10 -16 10 -11 0 -14 5 -10 16 4 12 1 14 -14 9 -31 -10 -23 9 10 23 23 10 34
11 52 1 16 -9 23 -9 26 0 2 6 11 11 19 11 11 0 4 12 -21 36 -26 25 -42 34 -56
29 -11 -4 -20 -2 -20 4 0 6 -7 11 -15 11 -9 0 -15 -9 -15 -22 -1 -36 -19 1
-22 43 -1 19 -8 40 -15 47 -7 7 -13 21 -13 31 0 21 -73 101 -92 101 -7 0 -28
14 -45 31 -32 29 -33 33 -33 107 0 42 4 72 8 66 11 -16 41 -24 48 -13 7 11 71
3 89 -11 6 -4 29 -10 53 -14 40 -6 42 -5 32 13 -15 30 -12 33 11 10 13 -13 29
-19 41 -16 14 4 18 2 14 -9 -3 -9 -2 -12 5 -9 5 4 18 4 27 0 9 -4 40 -7 69 -6
28 2 61 -3 72 -9 16 -8 21 -8 21 1 0 7 9 9 21 6 12 -3 32 -1 46 4 15 5 22 5
18 0 -9 -15 16 -25 26 -10 6 10 11 11 17 3 8 -13 72 -15 72 -3 0 5 15 12 33
17 23 6 31 14 29 26 -2 10 1 15 6 12 21 -13 42 6 42 38 0 18 3 36 6 39 10 10
24 -2 24 -20z"/>
<path d="M2946 1360 c-10 -10 -37 -32 -60 -47 -22 -15 -52 -38 -66 -51 -14
-13 -36 -30 -50 -39 -20 -13 -90 -88 -145 -156 -76 -94 -183 -215 -235 -267
-70 -69 -84 -81 -143 -120 -20 -14 -37 -28 -37 -33 0 -11 54 4 62 17 4 6 14
11 22 11 15 0 120 88 169 142 29 31 100 73 125 73 7 0 12 4 12 9 0 11 35 9 63
-3 9 -5 17 -16 17 -26 0 -10 7 -20 15 -24 8 -3 15 -17 15 -31 0 -14 9 -34 20
-45 12 -12 20 -33 20 -54 0 -21 6 -36 15 -40 9 -3 15 -19 15 -41 0 -20 7 -43
15 -51 10 -10 15 -35 15 -75 0 -38 4 -61 13 -64 8 -4 13 -35 16 -93 7 -158 6
-317 -3 -334 -7 -16 -1 -18 75 -18 63 0 80 3 71 12 -8 8 -8 17 -1 30 5 10 7
23 4 29 -4 5 -1 16 5 24 9 11 7 21 -10 45 -36 50 -18 41 69 -38 27 -23 52 -42
57 -42 5 -1 20 -14 34 -30 l24 -30 129 0 c108 0 132 3 142 16 10 15 13 15 27
0 19 -18 148 -24 148 -6 0 6 -7 10 -15 10 -8 0 -15 9 -15 20 0 13 7 20 20 20
11 0 23 0 27 1 4 0 9 -5 11 -13 3 -11 2 -11 -6 0 -7 11 -10 11 -15 -2 -9 -24
3 -46 24 -46 14 0 18 6 15 22 -3 13 -5 32 -5 43 -1 11 -11 36 -23 55 -12 19
-21 43 -19 53 1 9 -7 29 -18 43 -12 15 -21 35 -21 44 0 10 -7 23 -15 30 -8 6
-17 22 -21 33 -3 12 -16 45 -29 72 -18 38 -22 61 -18 93 3 23 9 39 14 36 5 -3
9 18 9 47 0 45 2 50 15 39 13 -11 15 -7 15 24 0 25 4 36 15 36 10 0 15 10 15
34 0 21 6 36 15 40 8 3 15 15 15 26 0 11 7 23 15 26 8 4 15 14 15 24 0 9 9 27
20 40 11 13 20 27 20 32 0 5 4 7 9 3 5 -3 11 5 13 17 2 13 10 23 18 24 47 3
50 5 50 30 0 37 20 19 21 -19 0 -24 2 -27 8 -14 9 25 25 23 33 -5 6 -21 6 -21
7 5 l1 28 30 -23 c17 -12 30 -31 31 -42 0 -21 1 -21 9 -1 10 23 -25 58 -130
130 -36 25 -78 57 -95 72 -59 55 -77 59 -144 33 -60 -22 -62 -22 -158 -6 -54
9 -107 16 -118 15 -11 0 -58 7 -105 16 -47 10 -107 18 -135 19 -27 2 -62 9
-76 16 -19 9 -32 9 -46 1 -20 -10 -33 -6 -33 10 0 5 7 6 15 3 18 -7 20 7 3 25
-11 11 -7 12 22 6 33 -7 34 -6 15 9 -23 18 -9 21 29 6 36 -13 33 2 -4 24 -17
9 -28 22 -24 27 3 5 10 7 15 3 5 -3 8 0 7 7 -2 7 8 16 22 20 14 4 21 7 16 8
-5 1 -1 10 9 21 17 19 17 20 -1 19 -10 0 -27 -9 -38 -19z m334 -846 c0 -8 -7
-17 -16 -21 -15 -6 -15 -8 2 -20 10 -7 23 -13 28 -13 6 0 4 5 -4 10 -13 8 -12
10 3 10 14 0 17 5 12 20 -5 14 -2 20 10 20 9 0 13 -5 10 -10 -4 -7 2 -9 18 -5
18 5 30 1 46 -16 24 -26 28 -44 7 -36 -12 5 -13 1 -5 -21 13 -39 17 -114 7
-135 -5 -10 -17 -16 -26 -15 -9 2 -16 -3 -15 -9 2 -7 -2 -13 -7 -13 -13 0 -13
16 0 40 8 15 4 22 -22 38 -23 15 -37 18 -50 11 -16 -9 -17 -7 -7 17 7 21 7 29
-3 36 -11 6 -11 10 0 16 9 7 6 15 -13 36 -14 15 -29 25 -34 22 -5 -3 -12 1
-15 10 -5 13 -2 15 14 11 12 -3 20 0 20 7 0 16 21 36 32 30 4 -3 8 -12 8 -20z
m-200 -83 c14 -8 34 -26 45 -40 11 -13 29 -31 39 -40 11 -9 45 -41 77 -71 31
-30 77 -73 103 -94 52 -44 57 -56 22 -56 -33 0 -57 -10 -50 -22 4 -5 11 -5 19
2 7 6 20 8 29 4 24 -9 20 -41 -6 -48 -19 -5 -21 -8 -8 -16 12 -9 12 -11 -5 -9
-11 1 -28 -1 -38 -6 -11 -4 -23 -3 -29 3 -8 8 -4 9 13 5 19 -5 22 -3 12 7 -6
7 -9 19 -6 26 3 8 0 21 -6 28 -8 9 -10 28 -5 51 7 38 -14 75 -43 75 -22 0 -15
-18 9 -22 24 -3 36 -34 21 -49 -11 -11 -40 -2 -46 14 -2 7 -3 4 -1 -6 3 -25
-14 -17 -33 15 -18 29 -10 75 8 48 7 -11 8 -6 3 15 -8 39 -51 80 -69 65 -25
-21 -7 -97 21 -86 16 6 19 -10 3 -19 -5 -4 -21 5 -34 19 -13 14 -31 26 -39 26
-21 0 -40 36 -23 44 6 3 0 3 -15 1 -28 -4 -40 16 -18 30 6 3 10 15 10 26 0 25
25 35 48 18 15 -13 16 -12 3 4 -7 9 -27 17 -43 17 -26 0 -28 2 -18 20 9 16 8
20 -5 20 -15 0 -20 12 -9 23 7 7 30 -1 64 -22z"/>
</g>
</svg>
