<svg width="134" height="50" viewBox="0 0 134 50" fill="none" xmlns="http://www.w3.org/2000/svg">
<path d="M36.7188 48.4375H13.2812C11.5555 48.4375 10.1562 47.0383 10.1562 45.3125V26.5625C10.1562 24.8367 11.5555 23.4375 13.2812 23.4375H36.7188C38.4445 23.4375 39.8438 24.8367 39.8438 26.5625V45.3125C39.8438 47.0383 38.4445 48.4375 36.7188 48.4375Z" fill="#A0A8B3"/>
<path d="M36.7187 23.4375H13.2812C11.5555 23.4375 10.1562 24.8367 10.1562 26.5625V43.1805C11.7953 43.5523 13.493 43.75 15.2344 43.75C26.5242 43.75 36.0312 35.5414 38.9297 24.3547C38.3641 23.7883 37.5828 23.4375 36.7187 23.4375Z" fill="#B3B9C2"/>
<path d="M10.1562 29.6875H7.03125C6.16797 29.6875 5.46875 30.3867 5.46875 31.25V40.625C5.46875 41.4883 6.16797 42.1875 7.03125 42.1875H10.1562V29.6875Z" fill="#8892A0"/>
<path d="M20.3125 12.5V3.125C20.3125 2.26172 19.6133 1.5625 18.75 1.5625H3.125C2.26172 1.5625 1.5625 2.26172 1.5625 3.125V12.5C1.5625 13.3633 2.26172 14.0625 3.125 14.0625H10.1562L13.2812 17.1875V14.0625H18.75C19.6133 14.0625 20.3125 13.3633 20.3125 12.5Z" fill="#8BD2F5"/>
<path d="M19.4359 1.72734C19.2281 1.625 18.9977 1.5625 18.75 1.5625H3.125C2.26172 1.5625 1.5625 2.26172 1.5625 3.125V12.5C1.5625 12.643 1.58828 12.7789 1.62422 12.9109C9.50391 11.6789 16.068 7.44531 19.4359 1.72734V1.72734Z" fill="#B9E4F9"/>
<path d="M29.6875 15.625V6.25C29.6875 5.38672 30.3867 4.6875 31.25 4.6875H46.875C47.7383 4.6875 48.4375 5.38672 48.4375 6.25V15.625C48.4375 16.4883 47.7383 17.1875 46.875 17.1875H39.8438L36.7188 20.3125V17.1875H31.25C30.3867 17.1875 29.6875 16.4883 29.6875 15.625Z" fill="#8BD2F5"/>
<path d="M46.993 4.69922C46.9531 4.69609 46.9156 4.6875 46.875 4.6875H31.25C30.3867 4.6875 29.6875 5.38672 29.6875 6.25V15.625C29.6875 15.9094 29.7687 16.1719 29.9016 16.4016C38.0555 16.3164 44.8992 11.3922 46.993 4.69922V4.69922Z" fill="#B9E4F9"/>
<path d="M39.8438 29.6875H42.9688C43.832 29.6875 44.5312 30.3867 44.5312 31.25V40.625C44.5312 41.4883 43.832 42.1875 42.9688 42.1875H39.8438V29.6875Z" fill="#8892A0"/>
<path d="M17.9688 37.5H32.0312V38.2812C32.0312 42.1648 28.8836 45.3125 25 45.3125C21.1164 45.3125 17.9688 42.1648 17.9688 38.2812V37.5Z" fill="#EBF7FE"/>
<path d="M17.1875 34.375C18.4819 34.375 19.5312 33.3257 19.5312 32.0312C19.5312 30.7368 18.4819 29.6875 17.1875 29.6875C15.8931 29.6875 14.8438 30.7368 14.8438 32.0312C14.8438 33.3257 15.8931 34.375 17.1875 34.375Z" fill="#EBF7FE"/>
<path d="M32.8125 34.375C34.1069 34.375 35.1562 33.3257 35.1562 32.0312C35.1562 30.7368 34.1069 29.6875 32.8125 29.6875C31.5181 29.6875 30.4688 30.7368 30.4688 32.0312C30.4688 33.3257 31.5181 34.375 32.8125 34.375Z" fill="#EBF7FE"/>
<path d="M17.9688 20.3125H32.0312V23.4375H17.9688V20.3125Z" fill="#8892A0"/>
<path d="M25 17.1875C26.2944 17.1875 27.3438 16.1382 27.3438 14.8437C27.3438 13.5493 26.2944 12.5 25 12.5C23.7056 12.5 22.6562 13.5493 22.6562 14.8437C22.6562 16.1382 23.7056 17.1875 25 17.1875Z" fill="#4472B0"/>
<path d="M42.9688 28.832H40.625V26.4883C40.625 24.3344 38.8727 22.582 36.7188 22.582H32.8125V20.2383C32.8125 19.807 32.4625 19.457 32.0312 19.457H25.7812V17.7836C27.125 17.4344 28.125 16.2211 28.125 14.7695C28.125 13.0461 26.7234 11.6445 25 11.6445C23.2766 11.6445 21.875 13.0461 21.875 14.7695C21.875 16.2211 22.875 17.4344 24.2188 17.7836V19.457H17.9688C17.5375 19.457 17.1875 19.807 17.1875 20.2383V22.582H13.2812C11.1273 22.582 9.375 24.3344 9.375 26.4883V28.832H7.03125C5.73906 28.832 4.6875 29.8836 4.6875 31.1758V40.5508C4.6875 41.843 5.73906 42.8945 7.03125 42.8945H9.375V45.2383C9.375 47.3922 11.1273 49.1445 13.2812 49.1445H36.7188C38.8727 49.1445 40.625 47.3922 40.625 45.2383V42.8945H42.9688C44.2609 42.8945 45.3125 41.843 45.3125 40.5508V31.1758C45.3125 29.8836 44.2609 28.832 42.9688 28.832ZM23.4375 14.7695C23.4375 13.9078 24.1383 13.207 25 13.207C25.8617 13.207 26.5625 13.9078 26.5625 14.7695C26.5625 15.6313 25.8617 16.332 25 16.332C24.1383 16.332 23.4375 15.6313 23.4375 14.7695ZM7.03125 41.332C6.60078 41.332 6.25 40.9812 6.25 40.5508V31.1758C6.25 30.7453 6.60078 30.3945 7.03125 30.3945H9.375V41.332H7.03125ZM18.75 21.0195H31.25V22.582H18.75V21.0195ZM39.0625 45.2383C39.0625 46.5305 38.0109 47.582 36.7188 47.582H13.2812C11.9891 47.582 10.9375 46.5305 10.9375 45.2383V26.4883C10.9375 25.1961 11.9891 24.1445 13.2812 24.1445H36.7188C38.0109 24.1445 39.0625 25.1961 39.0625 26.4883V45.2383ZM43.75 40.5508C43.75 40.9812 43.3992 41.332 42.9688 41.332H40.625V30.3945H42.9688C43.3992 30.3945 43.75 30.7453 43.75 31.1758V40.5508Z" fill="black"/>
<path d="M32.0312 36.6445H17.9688C17.5375 36.6445 17.1875 36.9945 17.1875 37.4258V38.207C17.1875 42.5148 20.6922 46.0195 25 46.0195C29.3078 46.0195 32.8125 42.5148 32.8125 38.207V37.4258C32.8125 36.9945 32.4625 36.6445 32.0312 36.6445ZM25 44.457C21.5539 44.457 18.75 41.6531 18.75 38.207H31.25C31.25 41.6531 28.4461 44.457 25 44.457Z" fill="black"/>
<path d="M20.3125 31.957C20.3125 30.2336 18.9109 28.832 17.1875 28.832C15.4641 28.832 14.0625 30.2336 14.0625 31.957C14.0625 33.6805 15.4641 35.082 17.1875 35.082C18.9109 35.082 20.3125 33.6805 20.3125 31.957ZM15.625 31.957C15.625 31.0953 16.3258 30.3945 17.1875 30.3945C18.0492 30.3945 18.75 31.0953 18.75 31.957C18.75 32.8188 18.0492 33.5195 17.1875 33.5195C16.3258 33.5195 15.625 32.8188 15.625 31.957Z" fill="black"/>
<path d="M32.8125 28.832C31.0891 28.832 29.6875 30.2336 29.6875 31.957C29.6875 33.6805 31.0891 35.082 32.8125 35.082C34.5359 35.082 35.9375 33.6805 35.9375 31.957C35.9375 30.2336 34.5359 28.832 32.8125 28.832ZM32.8125 33.5195C31.9508 33.5195 31.25 32.8188 31.25 31.957C31.25 31.0953 31.9508 30.3945 32.8125 30.3945C33.6742 30.3945 34.375 31.0953 34.375 31.957C34.375 32.8188 33.6742 33.5195 32.8125 33.5195Z" fill="black"/>
<path d="M12.7289 17.6656C12.8781 17.8148 13.0781 17.8945 13.2812 17.8945C13.382 17.8945 13.4836 17.875 13.5805 17.8352C13.8719 17.7141 14.0625 17.4297 14.0625 17.1133V14.7695H18.75C20.0422 14.7695 21.0938 13.718 21.0938 12.4258V3.05078C21.0938 1.75859 20.0422 0.707031 18.75 0.707031H3.125C1.83281 0.707031 0.78125 1.75859 0.78125 3.05078V12.4258C0.78125 13.718 1.83281 14.7695 3.125 14.7695H9.83281L12.7289 17.6656ZM2.34375 12.4258V3.05078C2.34375 2.62031 2.69453 2.26953 3.125 2.26953H18.75C19.1805 2.26953 19.5312 2.62031 19.5312 3.05078V12.4258C19.5312 12.8562 19.1805 13.207 18.75 13.207H13.2812C12.85 13.207 12.5 13.557 12.5 13.9883V15.2273L10.7086 13.4359C10.5617 13.2891 10.3633 13.207 10.1562 13.207H3.125C2.69453 13.207 2.34375 12.857 2.34375 12.4258Z" fill="black"/>
<path d="M46.875 3.83203H31.25C29.9578 3.83203 28.9062 4.88359 28.9062 6.17578V15.5508C28.9062 16.843 29.9578 17.8945 31.25 17.8945H35.9375V20.2383C35.9375 20.5539 36.1281 20.8391 36.4195 20.9602C36.5164 21 36.618 21.0195 36.7188 21.0195C36.9219 21.0195 37.1219 20.9398 37.2711 20.7906L40.1672 17.8945H46.875C48.1672 17.8945 49.2188 16.843 49.2188 15.5508V6.17578C49.2188 4.88359 48.1672 3.83203 46.875 3.83203V3.83203ZM47.6562 15.5508C47.6562 15.9813 47.3055 16.332 46.875 16.332H39.8438C39.6367 16.332 39.4375 16.4141 39.2914 16.5609L37.5 18.3523V17.1133C37.5 16.682 37.15 16.332 36.7188 16.332H31.25C30.8195 16.332 30.4688 15.9813 30.4688 15.5508V6.17578C30.4688 5.74531 30.8195 5.39453 31.25 5.39453H46.875C47.3055 5.39453 47.6562 5.74531 47.6562 6.17578V15.5508Z" fill="black"/>
<path d="M3.90625 3.83203H17.9688V5.39453H3.90625V3.83203Z" fill="black"/>
<path d="M3.90625 10.082H17.9688V11.6445H3.90625V10.082Z" fill="black"/>
<path d="M5.46875 6.95703H16.4062V8.51953H5.46875V6.95703Z" fill="black"/>
<path d="M32.0312 6.95703H46.0938V8.51953H32.0312V6.95703Z" fill="black"/>
<path d="M32.0312 13.207H46.0938V14.7695H32.0312V13.207Z" fill="black"/>
<path d="M33.5938 10.082H44.5312V11.6445H33.5938V10.082Z" fill="black"/>
<path d="M59.2 42.14C58.2267 42.14 57.3467 41.9733 56.56 41.64C55.7867 41.3067 55.1733 40.8267 54.72 40.2C54.2667 39.5733 54.0333 38.8333 54.02 37.98H57.02C57.06 38.5533 57.26 39.0067 57.62 39.34C57.9933 39.6733 58.5 39.84 59.14 39.84C59.7933 39.84 60.3067 39.6867 60.68 39.38C61.0533 39.06 61.24 38.6467 61.24 38.14C61.24 37.7267 61.1133 37.3867 60.86 37.12C60.6067 36.8533 60.2867 36.6467 59.9 36.5C59.5267 36.34 59.0067 36.1667 58.34 35.98C57.4333 35.7133 56.6933 35.4533 56.12 35.2C55.56 34.9333 55.0733 34.54 54.66 34.02C54.26 33.4867 54.06 32.78 54.06 31.9C54.06 31.0733 54.2667 30.3533 54.68 29.74C55.0933 29.1267 55.6733 28.66 56.42 28.34C57.1667 28.0067 58.02 27.84 58.98 27.84C60.42 27.84 61.5867 28.1933 62.48 28.9C63.3867 29.5933 63.8867 30.5667 63.98 31.82H60.9C60.8733 31.34 60.6667 30.9467 60.28 30.64C59.9067 30.32 59.4067 30.16 58.78 30.16C58.2333 30.16 57.7933 30.3 57.46 30.58C57.14 30.86 56.98 31.2667 56.98 31.8C56.98 32.1733 57.1 32.4867 57.34 32.74C57.5933 32.98 57.9 33.18 58.26 33.34C58.6333 33.4867 59.1533 33.66 59.82 33.86C60.7267 34.1267 61.4667 34.3933 62.04 34.66C62.6133 34.9267 63.1067 35.3267 63.52 35.86C63.9333 36.3933 64.14 37.0933 64.14 37.96C64.14 38.7067 63.9467 39.4 63.56 40.04C63.1733 40.68 62.6067 41.1933 61.86 41.58C61.1133 41.9533 60.2267 42.14 59.2 42.14ZM81.7875 28.04V42H78.9875V32.92L75.2475 42H73.1275L69.3675 32.92V42H66.5675V28.04H69.7475L74.1875 38.42L78.6275 28.04H81.7875ZM87.3558 30.3V33.8H92.0558V36.02H87.3558V39.72H92.6558V42H84.5558V28.02H92.6558V30.3H87.3558ZM103.12 34.84C103.907 34.9867 104.554 35.38 105.06 36.02C105.567 36.66 105.82 37.3933 105.82 38.22C105.82 38.9667 105.634 39.6267 105.26 40.2C104.9 40.76 104.374 41.2 103.68 41.52C102.987 41.84 102.167 42 101.22 42H95.2003V28.04H100.96C101.907 28.04 102.72 28.1933 103.4 28.5C104.094 28.8067 104.614 29.2333 104.96 29.78C105.32 30.3267 105.5 30.9467 105.5 31.64C105.5 32.4533 105.28 33.1333 104.84 33.68C104.414 34.2267 103.84 34.6133 103.12 34.84ZM98.0003 33.8H100.56C101.227 33.8 101.74 33.6533 102.1 33.36C102.46 33.0533 102.64 32.62 102.64 32.06C102.64 31.5 102.46 31.0667 102.1 30.76C101.74 30.4533 101.227 30.3 100.56 30.3H98.0003V33.8ZM100.82 39.72C101.5 39.72 102.027 39.56 102.4 39.24C102.787 38.92 102.98 38.4667 102.98 37.88C102.98 37.28 102.78 36.8133 102.38 36.48C101.98 36.1333 101.44 35.96 100.76 35.96H98.0003V39.72H100.82ZM114.532 42.14C113.225 42.14 112.025 41.8333 110.932 41.22C109.839 40.6067 108.972 39.76 108.332 38.68C107.692 37.5867 107.372 36.3533 107.372 34.98C107.372 33.62 107.692 32.4 108.332 31.32C108.972 30.2267 109.839 29.3733 110.932 28.76C112.025 28.1467 113.225 27.84 114.532 27.84C115.852 27.84 117.052 28.1467 118.132 28.76C119.225 29.3733 120.085 30.2267 120.712 31.32C121.352 32.4 121.672 33.62 121.672 34.98C121.672 36.3533 121.352 37.5867 120.712 38.68C120.085 39.76 119.225 40.6067 118.132 41.22C117.039 41.8333 115.839 42.14 114.532 42.14ZM114.532 39.64C115.372 39.64 116.112 39.4533 116.752 39.08C117.392 38.6933 117.892 38.1467 118.252 37.44C118.612 36.7333 118.792 35.9133 118.792 34.98C118.792 34.0467 118.612 33.2333 118.252 32.54C117.892 31.8333 117.392 31.2933 116.752 30.92C116.112 30.5467 115.372 30.36 114.532 30.36C113.692 30.36 112.945 30.5467 112.292 30.92C111.652 31.2933 111.152 31.8333 110.792 32.54C110.432 33.2333 110.252 34.0467 110.252 34.98C110.252 35.9133 110.432 36.7333 110.792 37.44C111.152 38.1467 111.652 38.6933 112.292 39.08C112.945 39.4533 113.692 39.64 114.532 39.64ZM133.255 28.04V30.3H129.535V42H126.735V30.3H123.015V28.04H133.255Z" fill="black"/>
</svg>
